<?xml version="1.0" encoding="utf-8"?>
<!-- Generator: Adobe Illustrator 18.0.0, SVG Export Plug-In . SVG Version: 6.00 Build 0)  -->
<!DOCTYPE svg PUBLIC "-//W3C//DTD SVG 1.1//EN" "http://www.w3.org/Graphics/SVG/1.1/DTD/svg11.dtd">
<svg version="1.1" id="Layer_1" xmlns="http://www.w3.org/2000/svg" xmlns:xlink="http://www.w3.org/1999/xlink" x="0px" y="0px"
	 viewBox="0 0 355.9 118.2" enable-background="new 0 0 355.9 118.2" xml:space="preserve">
<g>
	<path fill-rule="evenodd" clip-rule="evenodd" fill="#FFFFFF" d="M345,102.3c0,4.8-3.9,8.7-8.7,8.7H19.6c-4.8,0-8.7-3.9-8.7-8.7
		V19.6c0-4.8,3.9-8.7,8.7-8.7h316.7c4.8,0,8.7,3.9,8.7,8.7V102.3z"/>
	<path fill="#00B2DB" d="M334.9,0h-314C9.4,0,0,9.4,0,20.9v76.3c0,11.6,9.4,20.9,20.9,20.9h314c11.6,0,20.9-9.4,20.9-20.9V20.9
		C355.9,9.4,346.5,0,334.9,0z M19.6,10.9h316.7c4.8,0,8.7,3.9,8.7,8.7V79H338v0c-6.1,0-12.8-6-13.2-7.7c-0.4,1.7-7.1,7.7-13.2,7.7v0
		c0,0-0.1,0-0.1,0s-0.1,0-0.1,0v0c-6.1,0-12.8-6-13.2-7.7C297.9,73,291.2,79,285,79v0c0,0-0.1,0-0.1,0c0,0-0.1,0-0.1,0v0
		c-6.1,0-12.8-6-13.2-7.7c-0.4,1.7-7.1,7.7-13.2,7.7v0c0,0-0.1,0-0.1,0s-0.1,0-0.1,0v0c-6.1,0-12.8-6-13.2-7.7
		c-0.4,1.7-7.1,7.7-13.2,7.7v0c0,0-0.1,0-0.1,0s-0.1,0-0.1,0v0c-6.1,0-12.8-6-13.2-7.7C218,73,211.3,79,205.1,79v0c0,0-0.1,0-0.1,0
		s-0.1,0-0.1,0v0c-6.1,0-12.8-6-13.2-7.7c-0.4,1.7-7.1,7.7-13.2,7.7v0c0,0-0.1,0-0.1,0s-0.1,0-0.1,0v0c-6.1,0-12.8-6-13.2-7.7h0
		C164.7,73,158,79,151.8,79v0c0,0-0.1,0-0.1,0c0,0-0.1,0-0.1,0v0c-6.1,0-12.8-6-13.2-7.7c-0.4,1.7-7.1,7.7-13.2,7.7v0
		c0,0-0.1,0-0.1,0c0,0-0.1,0-0.1,0v0c-6.1,0-12.8-6-13.2-7.7c-0.4,1.7-7.1,7.7-13.2,7.7v0c0,0-0.1,0-0.1,0c0,0-0.1,0-0.1,0v0
		c-6.1,0-12.8-6-13.2-7.7C84.8,73,78.1,79,71.9,79v0c0,0-0.1,0-0.1,0c0,0-0.1,0-0.1,0v0c-6.1,0-12.8-6-13.2-7.7
		C58.1,73,51.4,79,45.3,79v0c0,0-0.1,0-0.1,0c0,0-0.1,0-0.1,0v0c-6.1,0-12.8-6-13.2-7.7C31.5,73,25,78.8,18.9,79v0h-0.2
		c0,0-0.1,0-0.1,0v0c0,0-0.1,0-0.1,0c0,0-0.1,0-0.1,0v0c0,0-0.1,0-0.1,0h-5h-1.5h-0.9V19.6C10.9,14.8,14.8,10.9,19.6,10.9z"/>
	<g>
		<path fill="#010101" d="M38,32.4v24.2h-1.4V32.4h-9.8v-1.2h20.9v1.2H38z"/>
		<path fill="#010101" d="M73.6,56.7V44H54.5v12.7h-1.4V31.2h1.4v11.6h19.1V31.2H75v25.5H73.6z"/>
		<path fill="#010101" d="M82.5,56.7V31.2h18.8v1.2H83.8v10.3h15.5V44H83.8v11.5h17.7v1.2H82.5z"/>
		<path fill="#010101" d="M136.1,56.7h-11.9V31.2h12.4c2.3,0,4.2,0.5,5.7,1.5c1.7,1.2,2.5,2.8,2.5,5.1c0,2.7-1.6,4.5-4.8,5.6
			c3.7,0.8,5.6,2.9,5.6,6.4c0,2.4-1,4.3-3.1,5.5C140.9,56.2,138.7,56.7,136.1,56.7z M136.5,32.4h-11v10.3h10.9
			c1.9,0,3.5-0.4,4.7-1.2c1.5-0.9,2.3-2.2,2.3-4c0-1.8-0.8-3.1-2.3-4C140,32.8,138.4,32.4,136.5,32.4z M136.4,44h-10.9v11.4h11
			c2.1,0,3.9-0.4,5.3-1.2c1.7-1,2.5-2.5,2.5-4.4c0-2.1-0.9-3.6-2.6-4.5C140.4,44.4,138.6,44,136.4,44z"/>
		<path fill="#010101" d="M152.4,56.7V31.2h18.8v1.2h-17.5v10.3h15.5V44h-15.5v11.5h17.7v1.2H152.4z"/>
		<path fill="#010101" d="M193.1,44.3c3,0.9,4.5,2.9,4.5,6v6.3h-1.4v-6.2c0-3.6-2.4-5.4-7.3-5.4h-10.3v11.6h-1.4V31.2h12
			c5.8,0,8.7,2.2,8.7,6.6C198,41.1,196.3,43.2,193.1,44.3z M189.4,32.4h-10.7v11.3h10.1c2.2,0,4-0.4,5.3-1.3c1.7-1,2.5-2.6,2.5-4.6
			C196.6,34.2,194.2,32.4,189.4,32.4z"/>
		<path fill="#010101" d="M226.6,56.7l-14.3-13.8l-5.7,4.5v9.3h-1.4V31.2h1.4v14.5l19.1-14.5h2.1l-14.4,10.9l15.1,14.5H226.6z"/>
		<path fill="#010101" d="M234.1,56.7V31.2h18.8v1.2h-17.5v10.3h15.5V44h-15.5v11.5h17.7v1.2H234.1z"/>
		<path fill="#010101" d="M259.1,56.7V31.2h1.4v24.2h16.1v1.2H259.1z"/>
		<path fill="#010101" d="M281.8,56.7V31.2h18.8v1.2h-17.5v10.3h15.5V44h-15.5v11.5h17.7v1.2H281.8z"/>
		<path fill="#010101" d="M317.3,44.3v12.4H316V44.3l-11.8-13.1h1.7L316.6,43l10.7-11.8h1.7L317.3,44.3z"/>
	</g>
	<g>
		<path fill="#FFFFFF" d="M40.9,101.3c-1.7,0-3-0.5-3.9-1.4C36,99,35.5,97.7,35.5,96c0-1.6,0.5-2.9,1.4-3.8c1-0.9,2.3-1.3,3.9-1.3
			c1.7,0,3,0.4,3.9,1.3c1,0.9,1.4,2.2,1.4,3.8c0,1.7-0.5,3-1.5,3.9C43.9,100.8,42.6,101.3,40.9,101.3z M40.9,91.4
			c-1.5,0-2.7,0.4-3.5,1.2c-0.9,0.8-1.3,1.9-1.3,3.4c0,1.5,0.4,2.6,1.3,3.5c0.9,0.9,2,1.3,3.5,1.3c1.5,0,2.7-0.4,3.6-1.3
			c0.9-0.8,1.3-2,1.3-3.5c0-1.5-0.4-2.6-1.3-3.5C43.6,91.8,42.4,91.4,40.9,91.4z"/>
		<path fill="#FFFFFF" d="M65.5,92.9c-0.8-1.1-2-1.7-3.8-1.7c-1.5,0-2.7,0.4-3.6,1.3c-0.9,0.9-1.3,2-1.3,3.5c0,1.5,0.4,2.6,1.3,3.5
			c0.9,0.9,2,1.3,3.5,1.3c1.7,0,2.9-0.6,3.8-1.7l0.5,0.3c-1,1.3-2.4,1.9-4.2,1.9c-1.6,0-2.9-0.5-3.9-1.4c-1-0.9-1.4-2.2-1.4-3.8
			c0-1.6,0.5-2.9,1.5-3.9c1-1,2.3-1.5,4-1.5c1.9,0,3.3,0.6,4.2,1.9L65.5,92.9z"/>
		<path fill="#FFFFFF" d="M76.3,101.2V90.8h7.7v0.5h-7.1v4.2h6.3V96h-6.3v4.7H84v0.5H76.3z"/>
		<path fill="#FFFFFF" d="M102.3,101.2l-1.5-3.3h-5.7l-1.5,3.3H93l4.8-10.4h0.6l4.6,10.4H102.3z M98,91.6l-2.7,5.8h5.2L98,91.6z"/>
		<path fill="#FFFFFF" d="M120.7,101.2l-7.7-9.6v9.6h-0.6V90.8h0.6c0.9,1.1,2.1,2.7,3.8,4.8c1.8,2.2,3,3.7,3.9,4.8v-9.6h0.6v10.4
			H120.7z"/>
		<path fill="#FFFFFF" d="M132.3,91.3v4.2h5.6V96h-5.6v5.2h-0.5V90.8h7.1v0.5H132.3z"/>
		<path fill="#FFFFFF" d="M154.9,96.2c1.2,0.4,1.8,1.2,1.8,2.5v2.6h-0.5v-2.5c0-1.5-1-2.2-3-2.2H149v4.7h-0.6V90.8h4.9
			c2.4,0,3.5,0.9,3.5,2.7C156.9,94.9,156.2,95.7,154.9,96.2z M153.4,91.3H149v4.6h4.1c0.9,0,1.6-0.2,2.2-0.5c0.7-0.4,1-1,1-1.9
			C156.3,92.1,155.3,91.3,153.4,91.3z"/>
		<path fill="#FFFFFF" d="M172.2,101.3c-1.7,0-3-0.5-3.9-1.4c-0.9-0.9-1.4-2.2-1.4-3.9c0-1.6,0.5-2.9,1.4-3.8c1-0.9,2.3-1.3,3.9-1.3
			c1.7,0,3,0.4,3.9,1.3c1,0.9,1.4,2.2,1.4,3.8c0,1.7-0.5,3-1.5,3.9C175.2,100.8,173.9,101.3,172.2,101.3z M172.2,91.4
			c-1.5,0-2.7,0.4-3.5,1.2c-0.9,0.8-1.3,1.9-1.3,3.4c0,1.5,0.4,2.6,1.3,3.5c0.9,0.9,2,1.3,3.5,1.3c1.5,0,2.7-0.4,3.6-1.3
			c0.9-0.8,1.3-2,1.3-3.5c0-1.5-0.4-2.6-1.3-3.5C174.9,91.8,173.7,91.4,172.2,91.4z"/>
		<path fill="#FFFFFF" d="M195.9,101.2l-7.7-9.6v9.6h-0.5V90.8h0.6c0.9,1.1,2.1,2.7,3.8,4.8c1.8,2.2,3,3.7,3.8,4.8v-9.6h0.5v10.4
			H195.9z"/>
		<path fill="#FFFFFF" d="M210.7,91.3v9.9h-0.5v-9.9h-4v-0.5h8.5v0.5H210.7z"/>
		<path fill="#FFFFFF" d="M246.9,101.2V96h-7.8v5.2h-0.6V90.8h0.6v4.7h7.8v-4.7h0.5v10.4H246.9z"/>
		<path fill="#FFFFFF" d="M263,101.3c-1.7,0-3-0.5-3.9-1.4c-1-0.9-1.4-2.2-1.4-3.9c0-1.6,0.5-2.9,1.4-3.8c0.9-0.9,2.3-1.3,3.9-1.3
			c1.7,0,3,0.4,3.9,1.3c1,0.9,1.4,2.2,1.4,3.8c0,1.7-0.5,3-1.5,3.9C265.9,100.8,264.6,101.3,263,101.3z M263,91.4
			c-1.5,0-2.7,0.4-3.5,1.2c-0.9,0.8-1.3,1.9-1.3,3.4c0,1.5,0.4,2.6,1.3,3.5c0.9,0.9,2,1.3,3.5,1.3c1.5,0,2.7-0.4,3.6-1.3
			c0.9-0.8,1.3-2,1.3-3.5c0-1.5-0.4-2.6-1.3-3.5C265.6,91.8,264.5,91.4,263,91.4z"/>
		<path fill="#FFFFFF" d="M282.1,91.3v9.9h-0.6v-9.9h-4v-0.5h8.5v0.5H282.1z"/>
		<path fill="#FFFFFF" d="M295.7,101.2V90.8h7.6v0.5h-7.1v4.2h6.3V96h-6.3v4.7h7.2v0.5H295.7z"/>
		<path fill="#FFFFFF" d="M313.2,101.2V90.8h0.6v9.9h6.5v0.5H313.2z"/>
	</g>
</g>
</svg>
